<svg width="8" height="15" viewBox="0 0 8 15" fill="none" xmlns="http://www.w3.org/2000/svg">
<path d="M2.32129 9.7373V9.08691C2.32129 8.78809 2.35059 8.51855 2.40918 8.27832C2.47363 8.03223 2.56738 7.80078 2.69043 7.58398C2.81934 7.36133 2.9834 7.14746 3.18262 6.94238C3.38184 6.73145 3.62207 6.51465 3.90332 6.29199C4.14941 6.09863 4.35742 5.92578 4.52734 5.77344C4.69727 5.62109 4.83496 5.47168 4.94043 5.3252C5.0459 5.17285 5.12207 5.01465 5.16895 4.85059C5.21582 4.68652 5.23926 4.49609 5.23926 4.2793C5.23926 3.94531 5.125 3.66992 4.89648 3.45312C4.67383 3.23633 4.33105 3.12793 3.86816 3.12793C3.46387 3.12793 3.02734 3.21289 2.55859 3.38281C2.0957 3.55273 1.61523 3.76074 1.11719 4.00684L0.220703 2.06445C0.472656 1.91797 0.745117 1.78027 1.03809 1.65137C1.33691 1.5166 1.64453 1.39941 1.96094 1.2998C2.2832 1.19434 2.6084 1.1123 2.93652 1.05371C3.26465 0.995117 3.58691 0.96582 3.90332 0.96582C4.50098 0.96582 5.04004 1.03906 5.52051 1.18555C6.00098 1.32617 6.4082 1.53418 6.74219 1.80957C7.07617 2.08496 7.33105 2.41895 7.50684 2.81152C7.68848 3.2041 7.7793 3.65234 7.7793 4.15625C7.7793 4.52539 7.73828 4.85645 7.65625 5.14941C7.57422 5.43652 7.45117 5.70605 7.28711 5.95801C7.12891 6.2041 6.92676 6.44434 6.68066 6.67871C6.44043 6.90723 6.15918 7.15039 5.83691 7.4082C5.59082 7.60156 5.38867 7.77148 5.23047 7.91797C5.07812 8.05859 4.95801 8.19336 4.87012 8.32227C4.78223 8.45117 4.7207 8.58594 4.68555 8.72656C4.65625 8.86133 4.6416 9.02246 4.6416 9.20996V9.7373H2.32129ZM2.03125 12.7432C2.03125 12.4678 2.06934 12.2363 2.14551 12.0488C2.22754 11.8555 2.33887 11.7002 2.47949 11.583C2.62012 11.4658 2.78418 11.3809 2.97168 11.3281C3.16504 11.2754 3.37012 11.249 3.58691 11.249C3.79199 11.249 3.98535 11.2754 4.16699 11.3281C4.35449 11.3809 4.51855 11.4658 4.65918 11.583C4.7998 11.7002 4.91113 11.8555 4.99316 12.0488C5.0752 12.2363 5.11621 12.4678 5.11621 12.7432C5.11621 13.0068 5.0752 13.2324 4.99316 13.4199C4.91113 13.6074 4.7998 13.7627 4.65918 13.8857C4.51855 14.0088 4.35449 14.0967 4.16699 14.1494C3.98535 14.208 3.79199 14.2373 3.58691 14.2373C3.37012 14.2373 3.16504 14.208 2.97168 14.1494C2.78418 14.0967 2.62012 14.0088 2.47949 13.8857C2.33887 13.7627 2.22754 13.6074 2.14551 13.4199C2.06934 13.2324 2.03125 13.0068 2.03125 12.7432Z" fill="#1F1B27"/>
</svg>
