<svg width="923" height="911" viewBox="0 0 923 911" fill="none" xmlns="http://www.w3.org/2000/svg">
<rect x="3" y="3" width="239" height="232" fill="#1F1B27"/>
<rect x="681" y="3" width="239" height="232" fill="#1F1B27"/>
<rect x="3" y="676" width="239" height="232" fill="#1F1B27"/>
<rect x="294.5" y="674.5" width="36" height="235" fill="#1F1B27" stroke="#1F1B27" stroke-width="3"/>
<rect x="327.5" y="486.5" width="36" height="235" fill="#1F1B27" stroke="#1F1B27" stroke-width="3"/>
<rect x="442.5" y="674.5" width="36" height="235" fill="#1F1B27" stroke="#1F1B27" stroke-width="3"/>
<rect x="442.5" y="1.5" width="36" height="235" fill="#1F1B27" stroke="#1F1B27" stroke-width="3"/>
<rect x="885.5" y="277.5" width="36" height="235" fill="#1F1B27" stroke="#1F1B27" stroke-width="3"/>
<rect x="669.5" y="277.5" width="36" height="235" fill="#1F1B27" stroke="#1F1B27" stroke-width="3"/>
<rect x="475.5" y="233.5" width="36" height="235" fill="#1F1B27" stroke="#1F1B27" stroke-width="3"/>
<rect x="216.5" y="277.5" width="36" height="235" fill="#1F1B27" stroke="#1F1B27" stroke-width="3"/>
<rect x="1.5" y="313.5" width="36" height="235" transform="rotate(-90 1.5 313.5)" fill="#1F1B27" stroke="#1F1B27" stroke-width="3"/>
<rect x="1.5" y="403.5" width="36" height="235" transform="rotate(-90 1.5 403.5)" fill="#1F1B27" stroke="#1F1B27" stroke-width="3"/>
<rect x="155.5" y="456.5" width="36" height="235" transform="rotate(-90 155.5 456.5)" fill="#1F1B27" stroke="#1F1B27" stroke-width="3"/>
<rect x="294.5" y="136.5" width="36" height="235" transform="rotate(-90 294.5 136.5)" fill="#1F1B27" stroke="#1F1B27" stroke-width="3"/>
<rect x="570.5" y="406.5" width="36" height="235" transform="rotate(-90 570.5 406.5)" fill="#1F1B27" stroke="#1F1B27" stroke-width="3"/>
<rect x="437.5" y="313.5" width="36" height="235" transform="rotate(-90 437.5 313.5)" fill="#1F1B27" stroke="#1F1B27" stroke-width="3"/>
<rect x="526.5" y="621.5" width="36" height="235" transform="rotate(-90 526.5 621.5)" fill="#1F1B27" stroke="#1F1B27" stroke-width="3"/>
<rect x="686.5" y="721.5" width="36" height="235" transform="rotate(-90 686.5 721.5)" fill="#1F1B27" stroke="#1F1B27" stroke-width="3"/>
<rect x="818.5" y="793.5" width="36" height="103" transform="rotate(-90 818.5 793.5)" fill="#1F1B27" stroke="#1F1B27" stroke-width="3"/>
<rect x="768.5" y="674.5" width="36" height="235" fill="#1F1B27" stroke="#1F1B27" stroke-width="3"/>
<rect x="642.5" y="909.5" width="36" height="235" transform="rotate(-90 642.5 909.5)" fill="#1F1B27" stroke="#1F1B27" stroke-width="3"/>
<rect x="338.5" y="677.5" width="36" height="235" transform="rotate(-90 338.5 677.5)" fill="#1F1B27" stroke="#1F1B27" stroke-width="3"/>
<rect x="410.5" y="533.5" width="36" height="119" transform="rotate(-90 410.5 533.5)" fill="#1F1B27" stroke="#1F1B27" stroke-width="3"/>
<rect x="731.5" y="540.5" width="36" height="119" transform="rotate(-90 731.5 540.5)" fill="#1F1B27" stroke="#1F1B27" stroke-width="3"/>
<rect x="731.5" y="676.5" width="36" height="119" transform="rotate(-90 731.5 676.5)" fill="#1F1B27" stroke="#1F1B27" stroke-width="3"/>
<rect x="570.5" y="761.5" width="36" height="119" transform="rotate(-90 570.5 761.5)" fill="#1F1B27" stroke="#1F1B27" stroke-width="3"/>
<rect x="475.5" y="854.5" width="36" height="119" transform="rotate(-90 475.5 854.5)" fill="#1F1B27" stroke="#1F1B27" stroke-width="3"/>
<rect x="359.5" y="793.5" width="36" height="119" transform="rotate(-90 359.5 793.5)" fill="#1F1B27" stroke="#1F1B27" stroke-width="3"/>
<rect x="343.5" y="202.5" width="36" height="119" transform="rotate(-90 343.5 202.5)" fill="#1F1B27" stroke="#1F1B27" stroke-width="3"/>
<rect x="508.5" y="69.5" width="36" height="119" transform="rotate(-90 508.5 69.5)" fill="#1F1B27" stroke="#1F1B27" stroke-width="3"/>
<rect x="286.5" y="357.5" width="36" height="119" transform="rotate(-90 286.5 357.5)" fill="#1F1B27" stroke="#1F1B27" stroke-width="3"/>
<rect x="72.5" y="574.5" width="36" height="119" transform="rotate(-90 72.5 574.5)" fill="#1F1B27" stroke="#1F1B27" stroke-width="3"/>
<rect x="38.5" y="501.5" width="36" height="38" transform="rotate(-90 38.5 501.5)" fill="#1F1B27" stroke="#1F1B27" stroke-width="3"/>
<rect x="82.5" y="464.5" width="36" height="38" transform="rotate(-90 82.5 464.5)" fill="#1F1B27" stroke="#1F1B27" stroke-width="3"/>
<rect x="584.5" y="499.5" width="36" height="38" transform="rotate(-90 584.5 499.5)" fill="#1F1B27" stroke="#1F1B27" stroke-width="3"/>
<rect x="628.5" y="462.5" width="36" height="38" transform="rotate(-90 628.5 462.5)" fill="#1F1B27" stroke="#1F1B27" stroke-width="3"/>
<rect x="796.5" y="623.5" width="36" height="38" transform="rotate(-90 796.5 623.5)" fill="#1F1B27" stroke="#1F1B27" stroke-width="3"/>
<rect x="840.5" y="586.5" width="36" height="38" transform="rotate(-90 840.5 586.5)" fill="#1F1B27" stroke="#1F1B27" stroke-width="3"/>
<rect x="505.5" y="756.5" width="36" height="38" transform="rotate(-90 505.5 756.5)" fill="#1F1B27" stroke="#1F1B27" stroke-width="3"/>
<rect x="549.5" y="719.5" width="36" height="38" transform="rotate(-90 549.5 719.5)" fill="#1F1B27" stroke="#1F1B27" stroke-width="3"/>
<rect x="513.5" y="178.5" width="36" height="38" transform="rotate(-90 513.5 178.5)" fill="#1F1B27" stroke="#1F1B27" stroke-width="3"/>
<rect x="557.5" y="141.5" width="36" height="38" transform="rotate(-90 557.5 141.5)" fill="#1F1B27" stroke="#1F1B27" stroke-width="3"/>
<rect x="350.5" y="50.5" width="36" height="38" fill="#1F1B27" stroke="#1F1B27" stroke-width="3"/>
<rect x="394.5" y="50.5" width="36" height="38" fill="#1F1B27" stroke="#1F1B27" stroke-width="3"/>
<rect x="515.5" y="318.5" width="36" height="38" fill="#1F1B27" stroke="#1F1B27" stroke-width="3"/>
<rect x="559.5" y="318.5" width="36" height="38" fill="#1F1B27" stroke="#1F1B27" stroke-width="3"/>
<rect x="580.5" y="772.5" width="36" height="38" fill="#1F1B27" stroke="#1F1B27" stroke-width="3"/>
<rect x="624.5" y="772.5" width="36" height="38" fill="#1F1B27" stroke="#1F1B27" stroke-width="3"/>
<rect x="498.5" y="871.5" width="36" height="38" fill="#1F1B27" stroke="#1F1B27" stroke-width="3"/>
<rect x="542.5" y="871.5" width="36" height="38" fill="#1F1B27" stroke="#1F1B27" stroke-width="3"/>
<rect x="348.5" y="820.5" width="36" height="38" fill="#1F1B27" stroke="#1F1B27" stroke-width="3"/>
<rect x="392.5" y="820.5" width="36" height="38" fill="#1F1B27" stroke="#1F1B27" stroke-width="3"/>
<rect x="128.5" y="318.5" width="36" height="38" fill="#1F1B27" stroke="#1F1B27" stroke-width="3"/>
<rect x="172.5" y="318.5" width="36" height="38" fill="#1F1B27" stroke="#1F1B27" stroke-width="3"/>
<rect x="547.5" y="207.5" width="36" height="38" fill="#1F1B27" stroke="#1F1B27" stroke-width="3"/>
<rect x="375.5" y="412.5" width="36" height="38" transform="rotate(-90 375.5 412.5)" fill="#1F1B27" stroke="#1F1B27" stroke-width="3"/>
<rect x="409.5" y="441.5" width="36" height="38" fill="#1F1B27" stroke="#1F1B27" stroke-width="3"/>
<rect x="240.5" y="586.5" width="36" height="38" transform="rotate(-90 240.5 586.5)" fill="#1F1B27" stroke="#1F1B27" stroke-width="3"/>
<rect x="274.5" y="615.5" width="36" height="38" fill="#1F1B27" stroke="#1F1B27" stroke-width="3"/>
<rect x="783.5" y="355.5" width="36" height="38" transform="rotate(-90 783.5 355.5)" fill="#1F1B27" stroke="#1F1B27" stroke-width="3"/>
<rect x="817.5" y="384.5" width="36" height="38" fill="#1F1B27" stroke="#1F1B27" stroke-width="3"/>
<rect x="375.5" y="412.5" width="36" height="38" transform="rotate(-90 375.5 412.5)" fill="#1F1B27" stroke="#1F1B27" stroke-width="3"/>
<rect x="409.5" y="441.5" width="36" height="38" fill="#1F1B27" stroke="#1F1B27" stroke-width="3"/>
<rect x="591.5" y="207.5" width="36" height="38" fill="#1F1B27" stroke="#1F1B27" stroke-width="3"/>
<rect x="299.5" y="239.5" width="36" height="38" fill="#1F1B27" stroke="#1F1B27" stroke-width="3"/>
<rect x="343.5" y="239.5" width="36" height="38" fill="#1F1B27" stroke="#1F1B27" stroke-width="3"/>
<rect x="216.5" y="277.5" width="36" height="235" fill="#1F1B27" stroke="#1F1B27" stroke-width="3"/>
</svg>
