<svg width="62" height="51" viewBox="0 0 62 51" fill="none" xmlns="http://www.w3.org/2000/svg">
<path d="M38.3511 1.32624C50.4367 1.32624 60.3617 11.9251 60.3617 25.1631C60.3617 38.4012 50.4367 49 38.3511 49C26.2655 49 16.3404 38.4012 16.3404 25.1631C16.3404 11.9251 26.2655 1.32624 38.3511 1.32624Z" fill="#FAF5EF" stroke="black" stroke-width="2"/>
<rect x="27.7589" y="48.5391" width="46.7518" height="11.6879" transform="rotate(-90 27.7589 48.5391)" fill="#FAF5EF"/>
<circle cx="24.8369" cy="25.1631" r="23.8369" transform="rotate(-90 24.8369 25.1631)" fill="#FAF5EF" stroke="black" stroke-width="2"/>
<path d="M23.3759 49.2695C23.7398 49.2695 34.2414 49.2695 39.4468 49.2695" stroke="black" stroke-width="2"/>
<path d="M23.3759 1.05664C23.7398 1.05664 34.2414 1.05664 39.4468 1.05664" stroke="black" stroke-width="2"/>
<ellipse cx="16.5547" cy="20.5" rx="2" ry="3.5" fill="black"/>
<ellipse cx="33.5547" cy="20.5" rx="2" ry="3.5" fill="black"/>
<path d="M10 31.0288C11.5086 34.2781 16.6842 40.7767 25.3181 40.7767" stroke="black" stroke-width="2"/>
<path d="M40.6361 31.0288C39.1275 34.2781 33.9519 40.7767 25.3181 40.7767" stroke="black" stroke-width="2"/>
</svg>
