<svg width="62" height="51" viewBox="0 0 62 51" fill="none" xmlns="http://www.w3.org/2000/svg">
<path d="M38.3511 2.00007C50.4367 2.00007 60.3617 12.5989 60.3617 25.8369C60.3617 39.075 50.4367 49.6738 38.3511 49.6738C26.2655 49.6738 16.3404 39.075 16.3404 25.837C16.3404 12.5989 26.2655 2.00007 38.3511 2.00007Z" fill="#FAF5EF" stroke="black" stroke-width="2"/>
<rect x="27.7589" y="49.2129" width="46.7518" height="11.6879" transform="rotate(-90 27.7589 49.2129)" fill="#FAF5EF"/>
<circle cx="24.8369" cy="25.8369" r="23.8369" transform="rotate(-90 24.8369 25.8369)" fill="#FAF5EF" stroke="black" stroke-width="2"/>
<path d="M23.3759 49.9434C23.7398 49.9434 34.2414 49.9434 39.4468 49.9434" stroke="black" stroke-width="2"/>
<path d="M23.3759 1.73047C23.7398 1.73047 34.2414 1.73047 39.4468 1.73047" stroke="black" stroke-width="2"/>
<path d="M28 20L40 21" stroke="black" stroke-width="2"/>
<path d="M21 20L9 21" stroke="black" stroke-width="2"/>
<path d="M14 36H35.5" stroke="black" stroke-width="2"/>
</svg>
