<svg width="167" height="47" viewBox="0 0 167 47" fill="none" xmlns="http://www.w3.org/2000/svg">
<path d="M5.34174 0.0600293C4.82271 -0.12871 4.24895 0.139047 4.06022 0.658078L0.984515 9.11622C0.795779 9.63525 1.06354 10.209 1.58257 10.3978C2.10161 10.5865 2.67537 10.3187 2.86411 9.79971L5.59806 2.28136L13.1164 5.0153C13.6354 5.20404 14.2092 4.93629 14.3979 4.41725C14.5867 3.89822 14.3189 3.32446 13.7999 3.13572L5.34174 0.0600293ZM164.627 0.51247C156.749 14.627 130.132 43.2083 86.9817 44L87.0183 45.9997C131.068 45.1914 158.251 16.0394 166.373 1.4872L164.627 0.51247ZM86.9817 44C65.4189 44.3956 46.8623 37.225 32.8205 28.0867C18.7517 18.9308 9.30503 7.86018 5.90619 0.576936L4.09381 1.42271C7.69498 9.13947 17.4483 20.4688 31.7295 29.763C46.0378 39.0747 64.9811 46.404 87.0183 45.9997L86.9817 44Z" fill="black"/>
</svg>
