<svg width="166" height="47" viewBox="0 0 166 47" fill="none" xmlns="http://www.w3.org/2000/svg">
<path d="M161.158 45.9556C161.677 46.1443 162.251 45.8766 162.44 45.3575L165.515 36.8994C165.704 36.3804 165.436 35.8066 164.917 35.6179C164.398 35.4291 163.825 35.6969 163.636 36.2159L160.902 43.7343L153.384 41.0003C152.865 40.8116 152.291 41.0793 152.102 41.5984C151.913 42.1174 152.181 42.6912 152.7 42.8799L161.158 45.9556ZM1.8732 45.5032C9.75106 31.3887 36.3682 2.80737 79.5183 2.01562L79.4817 0.0159575C35.4318 0.824212 8.24894 29.9763 0.126802 44.5284L1.8732 45.5032ZM79.5183 2.01562C101.081 1.61997 119.638 8.79062 133.68 17.9289C147.748 27.0848 157.195 38.1554 160.594 45.4387L162.406 44.5929C158.805 36.8761 149.052 25.5468 134.77 16.2526C120.462 6.94096 101.519 -0.388396 79.4817 0.0159575L79.5183 2.01562Z" fill="black"/>
</svg>
