<svg width="20" height="20" viewBox="0 0 20 20" fill="none" xmlns="http://www.w3.org/2000/svg">
<circle cx="10" cy="10" r="10" fill="#1F1B27"/>
<path d="M8.32129 12.7373V12.0869C8.32129 11.7881 8.35059 11.5186 8.40918 11.2783C8.47363 11.0322 8.56738 10.8008 8.69043 10.584C8.81934 10.3613 8.9834 10.1475 9.18262 9.94238C9.38184 9.73145 9.62207 9.51465 9.90332 9.29199C10.1494 9.09863 10.3574 8.92578 10.5273 8.77344C10.6973 8.62109 10.835 8.47168 10.9404 8.3252C11.0459 8.17285 11.1221 8.01465 11.1689 7.85059C11.2158 7.68652 11.2393 7.49609 11.2393 7.2793C11.2393 6.94531 11.125 6.66992 10.8965 6.45312C10.6738 6.23633 10.3311 6.12793 9.86816 6.12793C9.46387 6.12793 9.02734 6.21289 8.55859 6.38281C8.0957 6.55273 7.61523 6.76074 7.11719 7.00684L6.2207 5.06445C6.47266 4.91797 6.74512 4.78027 7.03809 4.65137C7.33691 4.5166 7.64453 4.39941 7.96094 4.2998C8.2832 4.19434 8.6084 4.1123 8.93652 4.05371C9.26465 3.99512 9.58691 3.96582 9.90332 3.96582C10.501 3.96582 11.04 4.03906 11.5205 4.18555C12.001 4.32617 12.4082 4.53418 12.7422 4.80957C13.0762 5.08496 13.3311 5.41895 13.5068 5.81152C13.6885 6.2041 13.7793 6.65234 13.7793 7.15625C13.7793 7.52539 13.7383 7.85645 13.6562 8.14941C13.5742 8.43652 13.4512 8.70605 13.2871 8.95801C13.1289 9.2041 12.9268 9.44434 12.6807 9.67871C12.4404 9.90723 12.1592 10.1504 11.8369 10.4082C11.5908 10.6016 11.3887 10.7715 11.2305 10.918C11.0781 11.0586 10.958 11.1934 10.8701 11.3223C10.7822 11.4512 10.7207 11.5859 10.6855 11.7266C10.6562 11.8613 10.6416 12.0225 10.6416 12.21V12.7373H8.32129ZM8.03125 15.7432C8.03125 15.4678 8.06934 15.2363 8.14551 15.0488C8.22754 14.8555 8.33887 14.7002 8.47949 14.583C8.62012 14.4658 8.78418 14.3809 8.97168 14.3281C9.16504 14.2754 9.37012 14.249 9.58691 14.249C9.79199 14.249 9.98535 14.2754 10.167 14.3281C10.3545 14.3809 10.5186 14.4658 10.6592 14.583C10.7998 14.7002 10.9111 14.8555 10.9932 15.0488C11.0752 15.2363 11.1162 15.4678 11.1162 15.7432C11.1162 16.0068 11.0752 16.2324 10.9932 16.4199C10.9111 16.6074 10.7998 16.7627 10.6592 16.8857C10.5186 17.0088 10.3545 17.0967 10.167 17.1494C9.98535 17.208 9.79199 17.2373 9.58691 17.2373C9.37012 17.2373 9.16504 17.208 8.97168 17.1494C8.78418 17.0967 8.62012 17.0088 8.47949 16.8857C8.33887 16.7627 8.22754 16.6074 8.14551 16.4199C8.06934 16.2324 8.03125 16.0068 8.03125 15.7432Z" fill="#F9F8F3"/>
</svg>
