<svg width="27" height="28" viewBox="0 0 27 28" fill="none" xmlns="http://www.w3.org/2000/svg">
<path d="M13.1809 26.9765C9.19665 27.3838 6.87253 22.3949 6.20849 19.8496C3.75208 14.1275 -0.763916 10.6865 1.72626 8.14119C3.62741 6.19797 4.21639 11.7046 6.20849 13.2318C7.80218 14.4536 7.86858 12.7228 7.70257 11.7046C6.87253 8.48058 5.61086 1.93064 7.20455 1.52339C9.19665 1.01432 10.1927 7.12308 10.1927 9.15932C10.1927 11.1956 11.1888 14.25 11.6868 12.2137C12.1848 10.1775 11.1888 1.52338 13.6789 1.01432C15.671 0.607066 15.505 8.98963 15.173 13.2318C15.505 13.5712 16.2686 13.2318 16.667 9.15932C17.1651 4.06869 18.6591 3.05057 19.1572 3.05057C20.5908 3.05057 20.965 5.58824 20.1532 8.14119C19.4351 10.3994 18.6591 15.4378 18.6591 17.8134C20.1532 16.6256 23.8338 14.9938 24.9564 15.9118C27.4465 17.948 24.9528 19.8496 22.9607 19.8496C21.367 19.8496 18.9912 22.8378 18.6591 23.6863C17.9951 24.8741 17.1651 26.5693 13.1809 26.9765Z" stroke="white" stroke-width="2"/>
</svg>
