<svg width="63" height="66" viewBox="0 0 63 66" fill="none" xmlns="http://www.w3.org/2000/svg">
<path d="M38.3511 17.0001C50.4367 17.0001 60.3617 27.5989 60.3617 40.8369C60.3617 54.075 50.4367 64.6738 38.3511 64.6738C26.2655 64.6738 16.3404 54.075 16.3404 40.837C16.3404 27.5989 26.2655 17.0001 38.3511 17.0001Z" fill="#FAF5EF" stroke="black" stroke-width="2"/>
<rect x="27.7589" y="64.2129" width="46.7518" height="11.6879" transform="rotate(-90 27.7589 64.2129)" fill="#FAF5EF"/>
<circle cx="24.8369" cy="40.8369" r="23.8369" transform="rotate(-90 24.8369 40.8369)" fill="#FAF5EF" stroke="black" stroke-width="2"/>
<path d="M23.3759 64.9434C23.7398 64.9434 34.2414 64.9434 39.4468 64.9434" stroke="black" stroke-width="2"/>
<path d="M23.3759 16.7305C23.7398 16.7305 34.2414 16.7305 39.4468 16.7305" stroke="black" stroke-width="2"/>
<path d="M9 34H19" stroke="black" stroke-width="2"/>
<path d="M30 34H40" stroke="black" stroke-width="2"/>
<path d="M27 51.5C27 53.6814 25.6614 55 24.5 55C23.3386 55 22 53.6814 22 51.5C22 49.3186 23.3386 48 24.5 48C25.6614 48 27 49.3186 27 51.5Z" stroke="black" stroke-width="2"/>
<path d="M50.32 6.792V9.864H55.264L49.984 15.528V18H60.088V14.928H54.712L60.088 9.288V6.792H50.32Z" fill="#FAF5EF"/>
<path d="M50.32 6.792V4.792C49.2154 4.792 48.32 5.68743 48.32 6.792H50.32ZM50.32 9.864H48.32C48.32 10.9686 49.2154 11.864 50.32 11.864V9.864ZM55.264 9.864L56.7269 11.2278C57.2698 10.6454 57.4156 9.79646 57.0981 9.06635C56.7805 8.33624 56.0602 7.864 55.264 7.864V9.864ZM49.984 15.528L48.5211 14.1642C48.1759 14.5345 47.984 15.0218 47.984 15.528H49.984ZM49.984 18H47.984C47.984 19.1046 48.8794 20 49.984 20V18ZM60.088 18V20C61.1926 20 62.088 19.1046 62.088 18H60.088ZM60.088 14.928H62.088C62.088 13.8234 61.1926 12.928 60.088 12.928V14.928ZM54.712 14.928L53.2643 13.5481C52.7122 14.1273 52.5585 14.9799 52.8735 15.7154C53.1886 16.451 53.9118 16.928 54.712 16.928V14.928ZM60.088 9.288L61.5357 10.6679C61.8902 10.296 62.088 9.80185 62.088 9.288H60.088ZM60.088 6.792H62.088C62.088 5.68743 61.1926 4.792 60.088 4.792V6.792ZM48.32 6.792V9.864H52.32V6.792H48.32ZM50.32 11.864H55.264V7.864H50.32V11.864ZM53.8011 8.50025L48.5211 14.1642L51.4469 16.8918L56.7269 11.2278L53.8011 8.50025ZM47.984 15.528V18H51.984V15.528H47.984ZM49.984 20H60.088V16H49.984V20ZM62.088 18V14.928H58.088V18H62.088ZM60.088 12.928H54.712V16.928H60.088V12.928ZM56.1597 16.3079L61.5357 10.6679L58.6403 7.90807L53.2643 13.5481L56.1597 16.3079ZM62.088 9.288V6.792H58.088V9.288H62.088ZM60.088 4.792H50.32V8.792H60.088V4.792Z" fill="black"/>
<path d="M41.32 10.792V13.864H46.264L40.984 19.528V22H51.088V18.928H45.712L51.088 13.288V10.792H41.32Z" fill="#FAF5EF"/>
<path d="M41.32 10.792V8.792C40.2154 8.792 39.32 9.68743 39.32 10.792H41.32ZM41.32 13.864H39.32C39.32 14.9686 40.2154 15.864 41.32 15.864V13.864ZM46.264 13.864L47.7269 15.2278C48.2698 14.6454 48.4156 13.7965 48.0981 13.0663C47.7805 12.3362 47.0602 11.864 46.264 11.864V13.864ZM40.984 19.528L39.5211 18.1642C39.1759 18.5345 38.984 19.0218 38.984 19.528H40.984ZM40.984 22H38.984C38.984 23.1046 39.8794 24 40.984 24V22ZM51.088 22V24C52.1926 24 53.088 23.1046 53.088 22H51.088ZM51.088 18.928H53.088C53.088 17.8234 52.1926 16.928 51.088 16.928V18.928ZM45.712 18.928L44.2643 17.5481C43.7122 18.1273 43.5585 18.9799 43.8735 19.7154C44.1886 20.451 44.9118 20.928 45.712 20.928V18.928ZM51.088 13.288L52.5357 14.6679C52.8902 14.296 53.088 13.8018 53.088 13.288H51.088ZM51.088 10.792H53.088C53.088 9.68743 52.1926 8.792 51.088 8.792V10.792ZM39.32 10.792V13.864H43.32V10.792H39.32ZM41.32 15.864H46.264V11.864H41.32V15.864ZM44.8011 12.5002L39.5211 18.1642L42.4469 20.8918L47.7269 15.2278L44.8011 12.5002ZM38.984 19.528V22H42.984V19.528H38.984ZM40.984 24H51.088V20H40.984V24ZM53.088 22V18.928H49.088V22H53.088ZM51.088 16.928H45.712V20.928H51.088V16.928ZM47.1597 20.3079L52.5357 14.6679L49.6403 11.9081L44.2643 17.5481L47.1597 20.3079ZM53.088 13.288V10.792H49.088V13.288H53.088ZM51.088 8.792H41.32V12.792H51.088V8.792Z" fill="black"/>
<path d="M32.32 15.792V18.864H37.264L31.984 24.528V27H42.088V23.928H36.712L42.088 18.288V15.792H32.32Z" fill="#FAF5EF"/>
<path d="M32.32 15.792V13.792C31.2154 13.792 30.32 14.6874 30.32 15.792H32.32ZM32.32 18.864H30.32C30.32 19.9686 31.2154 20.864 32.32 20.864V18.864ZM37.264 18.864L38.7269 20.2278C39.2698 19.6454 39.4156 18.7965 39.0981 18.0663C38.7805 17.3362 38.0602 16.864 37.264 16.864V18.864ZM31.984 24.528L30.5211 23.1642C30.1759 23.5345 29.984 24.0218 29.984 24.528H31.984ZM31.984 27H29.984C29.984 28.1046 30.8794 29 31.984 29V27ZM42.088 27V29C43.1926 29 44.088 28.1046 44.088 27H42.088ZM42.088 23.928H44.088C44.088 22.8234 43.1926 21.928 42.088 21.928V23.928ZM36.712 23.928L35.2643 22.5481C34.7122 23.1273 34.5585 23.9799 34.8735 24.7154C35.1886 25.451 35.9118 25.928 36.712 25.928V23.928ZM42.088 18.288L43.5357 19.6679C43.8902 19.296 44.088 18.8018 44.088 18.288H42.088ZM42.088 15.792H44.088C44.088 14.6874 43.1926 13.792 42.088 13.792V15.792ZM30.32 15.792V18.864H34.32V15.792H30.32ZM32.32 20.864H37.264V16.864H32.32V20.864ZM35.8011 17.5002L30.5211 23.1642L33.4469 25.8918L38.7269 20.2278L35.8011 17.5002ZM29.984 24.528V27H33.984V24.528H29.984ZM31.984 29H42.088V25H31.984V29ZM44.088 27V23.928H40.088V27H44.088ZM42.088 21.928H36.712V25.928H42.088V21.928ZM38.1597 25.3079L43.5357 19.6679L40.6403 16.9081L35.2643 22.5481L38.1597 25.3079ZM44.088 18.288V15.792H40.088V18.288H44.088ZM42.088 13.792H32.32V17.792H42.088V13.792Z" fill="black"/>
</svg>
